# xmcd CD database file
#
# Track frame offsets:
#	150
#	14642
#	28274
#	39794
#	55234
#	69736
#	81366
#	94452
#	107156
#	127535
#	141922
#	154107
#	165704
#
# Disc length: 2402 seconds
#
# Revision: 0
# Processed by: cddbd v1.5.1PL2 Copyright (c) Steve Scherf et al.
# Submitted via: CDex 1.50
#
DISCID=ae09600d
DTITLE=Ondrej Havelka a jeho Melody Makers - Vam preji Bile a Oranzove (Skupina CEZ Edition)
DYEAR=2006
DGENRE=Jazz
TTITLE0=White Christmas (Berlin)
TTITLE1=Jingle Bells (Pierpont)
TTITLE2=Ezop a brabenec (Jezek a V and W)
TTITLE3=Tri straznici (Jezek a V and W)
TTITLE4=Three Little Words (Ruby, Kalmer)
TTITLE5=Sing, Sing, Sing (Prima)
TTITLE6=Pick Yourself Up (Kern)
TTITLE7=I Cant Dance (Williams, Gaines)
TTITLE8=Tmavomodry svet (Jezek a V+W)
TTITLE9=Swing It (Bretz, Weitz)
TTITLE10=Happy Feet - Chodidla (Yellen, Ager, V+W)
TTITLE11=Lookin´ Good But Feelin´ Bad (Fats, Waller)
TTITLE12=Prosinec a snih (Moravec)
EXTD=YEAR: 2006
EXTT0=
EXTT1=
EXTT2=
EXTT3=
EXTT4=
EXTT5=
EXTT6=
EXTT7=
EXTT8=
EXTT9=
EXTT10=
EXTT11=
EXTT12=
PLAYORDER=
